<svg width="25" height="38" viewBox="0 0 25 38" fill="none" xmlns="http://www.w3.org/2000/svg">
<path d="M12.4457 17.9763C13.2642 17.931 13.9368 17.9199 14.3923 17.943C14.9966 17.943 15.4671 17.9097 15.7019 17.9097C15.9367 17.9097 16.0714 18.0096 16.0714 18.2416C16.0714 18.5402 15.7356 18.9386 14.3923 19.1706L13.9892 19.2445C13.9892 23.0594 14.3521 27.9928 13.3793 27.9928C12.674 27.9928 12.4457 27.4308 12.4457 25.5404V19.3702H11.5393C9.35699 19.3702 7.44406 19.337 5.79866 19.2704C5.76499 20.9953 5.75937 22.3883 5.76498 23.1518C5.77715 24.5939 5.92868 26.2873 6.13448 27.3984C6.3702 28.6713 5.93242 29.2231 5.49652 29.2231C4.92591 29.2231 3.71735 28.1287 3.71735 26.2374C3.71735 24.7778 3.75103 22.1572 3.81838 19.1715C3.84738 18.3802 3.80341 18.2434 3.85205 17.7119L4.15419 7.19626C4.16635 6.5566 4.2468 5.85777 4.24867 5.48987C4.24399 4.06264 5.35995 3.70953 5.66209 3.70953C5.96423 3.70953 5.96704 4.2771 5.96704 6.96332C5.96704 10.1811 5.89968 14.3943 5.83233 17.8108C7.77988 17.9107 9.99495 17.9772 12.0763 17.9772H12.4457V17.9763Z" fill="black"/>
<path d="M12.3008 29.0752C12.3316 28.6426 12.3316 28.1102 12.3316 27.6156C12.3316 27.6156 12.1932 24.543 12.3662 23.7573C12.5346 22.9938 12.6459 22.7109 12.8321 22.3754C13.4214 21.3133 14.2305 22.8459 14.2305 24.2186C14.2305 25.3306 14.2866 27.1821 14.2689 28.5714C16.1126 28.0778 17.0807 27.6859 17.5812 27.3152C18.0498 26.9445 18.1434 27.1303 18.1434 27.3152C18.1434 27.8097 17.2678 28.7665 14.2053 29.7241C13.7058 36.0551 11.8611 38.0009 8.64327 38.0009C5.11206 38.0009 1.64259 35.3138 1.64259 32.133C1.64259 30.7437 2.42367 30.2806 4.48627 30.0948C7.86126 29.786 10.3925 29.4459 12.2989 29.0761L12.3008 29.0752ZM12.269 30.2492C10.1128 30.7428 7.20646 31.2068 3.36283 31.5775C2.70616 31.6394 2.61262 31.9167 2.61262 32.2569C2.61262 34.1713 5.76873 36.9823 8.9875 36.9823C11.0501 36.9823 12.0501 35.654 12.269 30.2501V30.2492Z" fill="black"/>
<path d="M23.4219 9.73235C23.4219 13.3485 21.3743 16.4331 18.3866 18.7219C19.5278 19.7498 20.7364 21.6743 22.5829 25.3561C23.2536 24.7589 23.6231 23.8632 23.8251 21.9729C23.8588 21.641 23.9261 21.3757 24.1609 21.3757C24.4967 21.3757 25 21.8407 25 23.0008C25 24.5269 23.6904 26.5504 21.9786 26.5504C20.5689 26.5504 20.2668 25.7878 19.1256 23.1995C18.5213 21.8398 17.816 20.3469 16.9105 19.2848C16.3399 19.4179 14.8629 19.5094 14.2249 19.5094V19.7488C14.2249 20.7731 14.2165 23.3493 14.2427 24.3347C14.267 25.2322 14.2539 25.7619 14.2605 26.457C14.2679 27.2538 13.9003 28.0488 13.4579 28.2374C13.1651 28.3621 12.5 28.0553 12.5 27.7816C12.5 27.4498 12.2792 26.6049 12.2792 25.0797C12.2792 24.1507 12.2484 21.336 12.2362 19.5141C11.7432 19.503 9.97998 19.4614 9.02024 19.4752C8.08015 19.4882 6.46374 19.4309 4.66587 19.3773C2.47792 19.3116 1.79787 19.2525 1.2862 19.1859C0.765172 19.1184 0 18.855 0 18.4926C0 18.2051 1.01399 17.7402 1.7193 17.6903C1.79881 17.6847 2.59017 17.5729 4.58449 17.5341C6.1139 17.5045 7.20459 17.4379 8.14563 17.4462C9.39535 17.4573 10.3691 17.4222 10.8911 17.4342C10.8911 17.4342 11.7657 17.4398 12.2979 17.4509L12.5599 4.03822C12.3129 3.99478 8.78919 4.13066 6.5339 5.34621C5.79024 5.74646 4.33847 6.2484 3.04946 8.39109C2.80251 8.80151 2.67904 9.04647 2.36474 9.08344C2.17578 9.10563 1.83155 9.00765 1.73052 8.6647C1.7193 7.9058 1.69404 7.83185 1.94099 7.53235C3.98488 5.05318 5.50962 4.60301 6.85381 4.03822C9.06046 3.11108 12.1502 2.89755 12.601 2.86427L12.6805 1.66998C12.7441 0.484013 13.8405 -0.00128174 14.1426 -0.00128174C14.4447 -0.00128174 14.4026 0.733594 14.426 2.46587V2.86427H14.5271C20.872 2.86427 23.4229 5.9489 23.4229 9.73143L23.4219 9.73235ZM17.5475 18.1709C20.0311 15.8489 21.307 13.3938 21.307 10.5079C21.307 6.69302 19.0582 4.13898 14.4251 4.03915C14.3914 8.38462 14.224 17.5646 14.224 17.5646C15.4999 17.5646 16.6411 17.6394 17.5475 18.17V18.1709Z" fill="black"/>
</svg>
