<svg width="44" height="27" viewBox="0 0 44 27" fill="none" xmlns="http://www.w3.org/2000/svg">
    <path
        d="M31.5455 5.33888L18.8239 9.91867C18.6999 9.9633 18.5808 10.02 18.4683 10.0879M18.3554 18.1819H10.8785C9.92403 18.1819 9.51208 16.9723 10.2681 16.3898L18.2806 10.2162C18.3408 10.1698 18.4035 10.127 18.4683 10.0879M20.7852 5.33888L15.889 4.86506C15.5709 4.83428 15.2361 4.86626 14.9959 5.07689C14.7586 5.28495 14.5372 5.60369 14.5372 6.0331C14.5372 6.60538 15.1662 6.82384 15.6465 6.88293C15.8309 6.90562 16.0163 6.87497 16.195 6.82392L17.4876 6.45459M17.4876 6.45459L20.7852 5.51244M17.4876 6.45459L18.4683 10.0879M18.4683 10.0879L20.0909 16.0993M22.1736 16.7935L31.719 6.0331M33.6281 1L32.6815 1.22273C31.5843 1.48089 30.9171 2.5943 31.2068 3.68361L35.0165 18.0083M43 18.1818C43 22.591 39.4257 26.1653 35.0165 26.1653C30.6074 26.1653 27.0331 22.591 27.0331 18.1818C27.0331 13.7727 30.6074 10.1983 35.0165 10.1983C39.4257 10.1983 43 13.7727 43 18.1818ZM16.9669 18.1818C16.9669 22.591 13.3926 26.1653 8.98347 26.1653C4.57432 26.1653 1 22.591 1 18.1818C1 13.7727 4.57432 10.1983 8.98347 10.1983C13.3926 10.1983 16.9669 13.7727 16.9669 18.1818ZM22.8678 18.1819C22.8678 19.5238 21.7799 20.6116 20.438 20.6116C19.0961 20.6116 18.0083 19.5238 18.0083 18.1819C18.0083 16.8399 19.0961 15.7521 20.438 15.7521C21.7799 15.7521 22.8678 16.8399 22.8678 18.1819Z"
        stroke="url(#paint0_linear_63_11450)" stroke-width="1.5" stroke-linecap="round" />
    <defs>
        <linearGradient id="paint0_linear_63_11450" x1="3.1" y1="13.7461" x2="43" y2="13.7461"
            gradientUnits="userSpaceOnUse">
            <stop stop-color="#FF8C00" />
            <stop offset="0.518333" stop-color="#EA338F" />
            <stop offset="1" stop-color="#0E65BC" />
        </linearGradient>
    </defs>
</svg>