<svg width="42" height="42" viewBox="0 0 42 42" fill="none" xmlns="http://www.w3.org/2000/svg">
    <path
        d="M2.50943 11.0506H2C1.44772 11.0506 1 11.4983 1 12.0506V40.2393C1 40.7916 1.44772 41.2393 2 41.2393H40C40.5523 41.2393 41 40.7916 41 40.2393V12.428C41 11.8757 40.5523 11.428 40 11.428H39.4906M21 8.03175V38.2204M21 8.03175C22.1321 7.27703 24.7736 4.8242 28.1698 3.12609C31.0883 1.66683 32.3348 1.32224 33.5857 1.0147C33.9015 0.937031 34.2075 1.17704 34.2075 1.50232V31.8289C34.2075 32.0409 34.0738 32.2301 33.8735 32.2995C31.8593 32.9976 29.9581 33.5527 28.1698 34.4468C26.6604 35.2016 22.5094 37.2141 21 38.2204M21 8.03175C19.7421 7.5286 16.4717 6.52231 13.4528 6.52231C10.617 6.52231 6.44914 7.41029 4.39021 7.93503C4.1707 7.99097 4.01887 8.18936 4.01887 8.41589V37.5658C4.01887 37.8955 4.33247 38.1363 4.65352 38.0613C6.35429 37.6641 9.64771 37.0884 13.0755 37.0884C17 37.0884 19.9937 37.8431 21 38.2204M21 38.2204C23.0126 37.7173 27.717 36.711 30.434 36.711C32.8079 36.711 35.9308 37.4792 37.6884 38.0088C38.0177 38.108 38.354 37.8614 38.3497 37.5175L37.986 8.4171C37.9831 8.19001 37.8276 7.99336 37.6073 7.93828L36.4717 7.65439"
        stroke="url(#paint0_linear_63_11470)" stroke-width="1.5" stroke-linecap="round" />
    <defs>
        <linearGradient id="paint0_linear_63_11470" x1="3" y1="21.3809" x2="41" y2="21.3809"
            gradientUnits="userSpaceOnUse">
            <stop stop-color="#FF8C00" />
            <stop offset="0.518333" stop-color="#EA338F" />
            <stop offset="1" stop-color="#0E65BC" />
        </linearGradient>
    </defs>
</svg>