<svg width="42" height="42" viewBox="0 0 42 42" fill="none" xmlns="http://www.w3.org/2000/svg">
    <path
        d="M6.90204 26.008C7.32604 25.6325 7.97052 24.779 8.0214 24.1132C8.07993 23.3473 7.91964 22.4745 7.46172 21.5527C7.3022 21.2315 6.86159 20.5443 6.31427 19.8799C5.80558 19.2624 4.96861 19.6577 4.96861 20.4577V27.6468M40.0811 17.5828C40.4256 17.2776 40.9493 16.5841 40.9906 16.0432C41.0382 15.4209 40.9079 14.7117 40.5359 13.9628C40.4283 13.7462 40.1634 13.3248 39.8222 12.8791C39.3359 12.2438 38.5102 12.6247 38.5102 13.4247V18.9142M5.07038 27.6597C5.07038 28.5648 4.15919 29.2984 3.03519 29.2984C1.91119 29.2984 1 28.5648 1 27.6597C1 26.7546 1.91119 26.0209 3.03519 26.0209C4.15919 26.0209 5.07038 26.7546 5.07038 27.6597ZM32.6063 29.3987C32.9612 29.0153 33.5969 27.8382 32.8372 26.8253C32.056 25.7836 31.0143 25.7836 30.4935 26.044L26.1755 28.7712C25.8749 28.961 25.4779 28.7854 25.4161 28.4353L24.7719 24.785C24.7668 24.7563 24.7643 24.7273 24.7643 24.6981V16.4086C24.7643 16.0614 24.8164 15.3148 25.0247 15.1065C25.233 14.8982 25.806 14.6725 26.0664 14.5857L30.4935 13.544C30.7539 13.4572 32.0529 13.1549 32.3164 13.0232C33.3019 12.5304 32.4226 10.639 32.325 10.4366C32.3189 10.4241 32.3138 10.4126 32.3087 10.3997L29.7122 3.90858C29.4518 3.12733 28.3277 2.89441 27.6289 3.12733C26.8476 3.38775 26.3268 4.42941 26.5872 5.21066L28.467 10.3801C28.5732 10.6721 28.3901 10.9893 28.084 11.0433L24.3396 11.7041C24.2761 11.7153 24.211 11.7141 24.148 11.7006L17.0962 10.1895C17.0019 10.1693 16.9157 10.1231 16.8494 10.0532C16.2068 9.37481 15.0026 7.82274 14.6081 7.03358C14.1914 6.20025 13.5664 3.47455 13.306 2.34608C13.2192 1.73844 12.5247 0.783586 11.2226 1.04401C9.97417 1.29371 9.92276 1.86261 9.69109 2.52118C9.67119 2.57774 9.6599 2.63626 9.66087 2.69621C9.69045 4.53192 10.6078 7.62677 11.2226 8.85651C12.0039 10.419 12.686 11.622 13.306 12.2419L15.6497 14.5857C15.8581 14.794 15.7365 16.7558 15.6497 17.7107V23.3478C15.6497 23.4087 15.6393 23.4669 15.6182 23.5239C14.9218 25.4107 13.8346 30.2536 14.3476 33.0752C15.106 37.2461 16.0534 40.3083 17.7331 41.1482C18.2539 41.4086 19.556 41.1482 20.0768 40.6273C20.5976 40.1065 20.8581 39.3252 20.8581 38.8044C20.8581 38.0232 19.2956 36.2002 18.7747 33.5961C18.2539 30.9919 18.2539 30.4711 18.2539 29.6898C18.2539 29.0648 18.6011 27.3461 18.7747 26.5648C18.8615 26.3044 19.0351 25.7836 20.3372 25.7836C21.5843 25.7836 21.6393 26.9989 21.6393 27.3461C21.81 29.2232 22.4 32.4423 22.42 32.5516L22.4216 32.559C22.437 32.6276 22.6367 33.4437 23.4622 33.8565C23.8789 34.0648 25.0247 34.3773 25.5455 34.1169L28.1497 32.5544L32.5418 29.4541C32.5651 29.4377 32.5869 29.4196 32.6063 29.3987ZM38.5929 18.9247C38.5929 19.66 37.8526 20.2562 36.9393 20.2562C36.0261 20.2562 35.2857 19.66 35.2857 18.9247C35.2857 18.1893 36.0261 17.5932 36.9393 17.5932C37.8526 17.5932 38.5929 18.1893 38.5929 18.9247ZM25.0247 5.21065C25.0247 7.22419 23.3924 8.85648 21.3789 8.85648C19.3653 8.85648 17.733 7.22419 17.733 5.21065C17.733 3.19711 19.3653 1.56482 21.3789 1.56482C23.3924 1.56482 25.0247 3.19711 25.0247 5.21065Z"
        stroke="url(#paint0_linear_64_11504)" stroke-width="1.5" />
    <defs>
        <linearGradient id="paint0_linear_64_11504" x1="3" y1="21.3865" x2="41" y2="21.3865"
            gradientUnits="userSpaceOnUse">
            <stop stop-color="#FF8C00" />
            <stop offset="0.518333" stop-color="#EA338F" />
            <stop offset="1" stop-color="#0E65BC" />
        </linearGradient>
    </defs>
</svg>