<svg width="42" height="43" viewBox="0 0 42 43" fill="none" xmlns="http://www.w3.org/2000/svg">
    <path
        d="M14.9759 18.4699C15.9799 17.5863 17.506 15.5783 17.6265 14.012C17.7651 12.2101 17.3855 10.1566 16.3012 7.98792C15.7646 6.91473 13.8849 4.10347 11.8458 2.17709C11.2652 1.62861 10.3976 2.06979 10.3976 2.86849V22.3253M23.1687 37.3854V16.4809C23.1687 16.0797 23.4085 15.7173 23.7778 15.5605L39.3681 8.93994C40.0276 8.65988 40.759 9.14389 40.759 9.86039V30.1565M22.6199 20.3039L40.2102 13.075M10.6386 22.3554C10.6386 24.4847 8.48089 26.2108 5.81928 26.2108C3.15766 26.2108 1 24.4847 1 22.3554C1 20.2261 3.15766 18.5 5.81928 18.5C8.48089 18.5 10.6386 20.2261 10.6386 22.3554ZM23.4096 37.3854C23.4096 39.5147 21.252 41.2408 18.5904 41.2408C15.9287 41.2408 13.7711 39.5147 13.7711 37.3854C13.7711 35.2561 15.9287 33.53 18.5904 33.53C21.252 33.53 23.4096 35.2561 23.4096 37.3854ZM41 30.1565C41 32.2858 38.8423 34.0119 36.1807 34.0119C33.5191 34.0119 31.3614 32.2858 31.3614 30.1565C31.3614 28.0272 33.5191 26.3011 36.1807 26.3011C38.8423 26.3011 41 28.0272 41 30.1565Z"
        stroke="url(#paint0_linear_63_11481)" stroke-width="2" />
    <defs>
        <linearGradient id="paint0_linear_63_11481" x1="3" y1="21.8424" x2="41" y2="21.8424"
            gradientUnits="userSpaceOnUse">
            <stop stop-color="#FF8C00" />
            <stop offset="0.518333" stop-color="#EA338F" />
            <stop offset="1" stop-color="#0E65BC" />
        </linearGradient>
    </defs>
</svg>