<svg width="42" height="43" viewBox="0 0 42 43" fill="none" xmlns="http://www.w3.org/2000/svg">
    <path
        d="M22.9048 19.6923C22.9048 19.957 22.6916 20.1716 22.4286 20.1716C22.1656 20.1716 21.9524 19.957 21.9524 19.6923C21.9524 19.4276 22.1656 19.213 22.4286 19.213C22.6916 19.213 22.9048 19.4276 22.9048 19.6923Z"
        fill="black" />
    <path
        d="M11.9294 14.7146L11.1816 14.6575L11.1816 14.6575L11.9294 14.7146ZM11.1721 11.2499L10.5004 11.5835L10.5004 11.5835L11.1721 11.2499ZM9.1869 8.48486L9.74283 7.98143L9.1869 8.48486ZM37.6437 31.9691L36.8959 31.9119L36.8959 31.9119L37.6437 31.9691ZM36.8864 28.5043L36.2147 28.838L36.2147 28.838L36.8864 28.5043ZM34.9012 25.7393L35.4571 25.2359L34.9012 25.7393ZM30.0847 19.9995C30.3867 19.716 30.4017 19.2414 30.1183 18.9394C29.8348 18.6374 29.3601 18.6223 29.0581 18.9058L30.0847 19.9995ZM9.79837 38.0127L9.28507 37.4659L9.28507 37.4659L9.79837 38.0127ZM4.83129 32.97L5.38759 33.473L5.38759 33.473L4.83129 32.97ZM23.4611 13.4853C23.7389 13.178 23.715 12.7038 23.4078 12.4259C23.1005 12.1481 22.6263 12.172 22.3485 12.4792L23.4611 13.4853ZM7.01079 37.9641L7.54284 37.4355L7.54284 37.4355L7.01079 37.9641ZM6 36.9467L5.44342 37.4495L5.45538 37.4627L5.46795 37.4754L6 36.9467ZM5.7619 36.6831L6.31849 36.1804L6.31849 36.1804L5.7619 36.6831ZM4.83054 35.652L4.27396 36.1547L4.27396 36.1547L4.83054 35.652ZM4.33333 40.0621L3.80129 39.5335L3.80129 39.5335L4.33333 40.0621ZM1 40.75C0.585786 40.75 0.25 41.0858 0.25 41.5C0.25 41.9142 0.585786 42.25 1 42.25V40.75ZM22.0082 21.1795C22.3002 20.8857 22.2986 20.4108 22.0048 20.1188C21.711 19.8269 21.2361 19.8284 20.9441 20.1223L22.0082 21.1795ZM18.087 22.998C17.7951 23.2919 17.7966 23.7667 18.0904 24.0587C18.3843 24.3506 18.8592 24.3491 19.1511 24.0552L18.087 22.998ZM7.1863 19.5134C7.1863 20.1802 6.44902 20.9808 5.18243 20.9808V22.4808C6.95768 22.4808 8.6863 21.2958 8.6863 19.5134H7.1863ZM5.18243 20.9808C3.91584 20.9808 3.17856 20.1802 3.17856 19.5134H1.67856C1.67856 21.2958 3.40718 22.4808 5.18243 22.4808V20.9808ZM3.17856 19.5134C3.17856 18.8465 3.91584 18.0459 5.18243 18.0459V16.5459C3.40718 16.5459 1.67856 17.7309 1.67856 19.5134H3.17856ZM5.18243 18.0459C6.44902 18.0459 7.1863 18.8465 7.1863 19.5134H8.6863C8.6863 17.7309 6.95768 16.5459 5.18243 16.5459V18.0459ZM10.9121 17.84C11.256 17.5353 11.6612 17.0653 11.9926 16.5489C12.3147 16.0471 12.6287 15.4069 12.6772 14.7718L11.1816 14.6575C11.1613 14.9232 11.0048 15.3109 10.7303 15.7387C10.465 16.1521 10.1473 16.5136 9.91752 16.7171L10.9121 17.84ZM12.6772 14.7718C12.7679 13.5862 12.5168 12.2709 11.8438 10.9162L10.5004 11.5835C11.0667 12.7235 11.2494 13.7703 11.1816 14.6575L12.6772 14.7718ZM11.8438 10.9162C11.5519 10.3287 10.7162 9.05634 9.74283 7.98143L8.63096 8.98828C9.52738 9.97819 10.2792 11.1382 10.5004 11.5835L11.8438 10.9162ZM7.04862 9.10604V19.496H8.54862V9.10604H7.04862ZM9.74283 7.98143C9.25633 7.44419 8.55734 7.32381 7.97665 7.59227C7.41714 7.85093 7.04862 8.42961 7.04862 9.10604H8.54862C8.54862 9.04126 8.56512 9.00312 8.57722 8.98363C8.59044 8.96234 8.60314 8.95518 8.6061 8.95381C8.60795 8.95295 8.60164 8.95577 8.59178 8.95373C8.57919 8.95113 8.59498 8.94855 8.63096 8.98828L9.74283 7.98143ZM32.9006 36.7677C32.9006 37.4346 32.1633 38.2351 30.8967 38.2351V39.7351C32.672 39.7351 34.4006 38.5501 34.4006 36.7677H32.9006ZM30.8967 38.2351C29.6301 38.2351 28.8929 37.4346 28.8929 36.7677H27.3929C27.3929 38.5501 29.1215 39.7351 30.8967 39.7351V38.2351ZM28.8929 36.7677C28.8929 36.1008 29.6301 35.3003 30.8967 35.3003V33.8003C29.1215 33.8003 27.3929 34.9853 27.3929 36.7677H28.8929ZM30.8967 35.3003C32.1633 35.3003 32.9006 36.1008 32.9006 36.7677H34.4006C34.4006 34.9853 32.672 33.8003 30.8967 33.8003V35.3003ZM36.6264 35.0944C36.9703 34.7898 37.3755 34.3197 37.7069 33.8034C38.029 33.3015 38.343 32.6613 38.3915 32.0262L36.8959 31.9119C36.8756 32.1776 36.7191 32.5653 36.4445 32.9932C36.1793 33.4065 35.8616 33.768 35.6318 33.9715L36.6264 35.0944ZM38.3915 32.0262C38.4821 30.8407 38.2311 29.5253 37.5581 28.1706L36.2147 28.838C36.781 29.9779 36.9637 31.0247 36.8959 31.9119L38.3915 32.0262ZM37.5581 28.1706C37.2662 27.5831 36.4305 26.3108 35.4571 25.2359L34.3452 26.2427C35.2417 27.2326 35.9935 28.3927 36.2147 28.838L37.5581 28.1706ZM32.7629 26.3605V36.7504H34.2629V26.3605H32.7629ZM35.4571 25.2359C34.9706 24.6986 34.2716 24.5782 33.6909 24.8467C33.1314 25.1054 32.7629 25.684 32.7629 26.3605H34.2629C34.2629 26.2957 34.2794 26.2576 34.2915 26.2381C34.3047 26.2168 34.3174 26.2096 34.3204 26.2082C34.3222 26.2074 34.3159 26.2102 34.3061 26.2082C34.2935 26.2056 34.3093 26.203 34.3452 26.2427L35.4571 25.2359ZM29.0581 18.9058L9.28507 37.4659L10.3117 38.5596L30.0847 19.9995L29.0581 18.9058ZM5.38759 33.473L23.4611 13.4853L22.3485 12.4792L4.27499 32.467L5.38759 33.473ZM7.54284 37.4355L6.53205 36.4181L5.46795 37.4754L6.47875 38.4927L7.54284 37.4355ZM6.55658 36.444L6.31849 36.1804L5.20532 37.1858L5.44342 37.4495L6.55658 36.444ZM6.31849 36.1804L5.38712 35.1493L4.27396 36.1547L5.20532 37.1858L6.31849 36.1804ZM5.01748 36.5918C4.90395 37.5174 4.73956 38.0985 4.54607 38.5148C4.35773 38.92 4.12369 39.209 3.80129 39.5335L4.86538 40.5907C5.25726 40.1963 5.61846 39.7664 5.90631 39.1471C6.18901 38.5389 6.38176 37.79 6.50633 36.7744L5.01748 36.5918ZM3.80129 39.5335C2.98108 40.3591 1.76764 40.75 1 40.75V42.25C2.13712 42.25 3.74311 41.7203 4.86538 40.5907L3.80129 39.5335ZM4.27499 32.467C3.3284 33.5138 3.32796 35.1073 4.27396 36.1547L5.38712 35.1493C4.95712 34.6732 4.95732 33.9489 5.38759 33.473L4.27499 32.467ZM9.28507 37.4659C8.7918 37.9289 8.01967 37.9154 7.54284 37.4355L6.47875 38.4927C7.52777 39.5486 9.22645 39.5782 10.3117 38.5596L9.28507 37.4659ZM40.25 10.3462C40.25 15.0983 36.4239 18.9423 31.7143 18.9423V20.4423C37.2614 20.4423 41.75 15.9175 41.75 10.3462H40.25ZM31.7143 18.9423C27.0047 18.9423 23.1786 15.0983 23.1786 10.3462H21.6786C21.6786 15.9175 26.1671 20.4423 31.7143 20.4423V18.9423ZM23.1786 10.3462C23.1786 5.59403 27.0047 1.75 31.7143 1.75V0.25C26.1671 0.25 21.6786 4.7748 21.6786 10.3462H23.1786ZM31.7143 1.75C36.4239 1.75 40.25 5.59403 40.25 10.3462H41.75C41.75 4.7748 37.2614 0.25 31.7143 0.25V1.75ZM22.1548 19.6923C22.1548 19.5474 22.2728 19.4216 22.4286 19.4216V20.9216C23.1104 20.9216 23.6548 20.3666 23.6548 19.6923H22.1548ZM22.4286 19.4216C22.5844 19.4216 22.7024 19.5474 22.7024 19.6923H21.2024C21.2024 20.3666 21.7468 20.9216 22.4286 20.9216V19.4216ZM22.7024 19.6923C22.7024 19.8372 22.5844 19.963 22.4286 19.963V18.463C21.7468 18.463 21.2024 19.018 21.2024 19.6923H22.7024ZM22.4286 19.963C22.2728 19.963 22.1548 19.8372 22.1548 19.6923H23.6548C23.6548 19.018 23.1104 18.463 22.4286 18.463V19.963ZM20.9441 20.1223L18.087 22.998L19.1511 24.0552L22.0082 21.1795L20.9441 20.1223Z"
        fill="url(#paint0_linear_63_11464)" />
    <defs>
        <linearGradient id="paint0_linear_63_11464" x1="3" y1="21.513" x2="41" y2="21.513"
            gradientUnits="userSpaceOnUse">
            <stop stop-color="#FF8C00" />
            <stop offset="0.518333" stop-color="#EA338F" />
            <stop offset="1" stop-color="#0E65BC" />
        </linearGradient>
    </defs>
</svg>